<?xml version="1.0" encoding="UTF-8"?>
<!-- Generated by Pixelmator Pro 3.3.6 -->
<svg width="547" height="144" viewBox="0 0 547 144" xmlns="http://www.w3.org/2000/svg">
    <path id="Path" fill="#FFFFFF" stroke="none" d="M 191.699997 52.400002 L 191.699997 43.800003 L 229.600006 43.800003 L 229.600006 52.400002 L 215.5 52.400002 L 215.5 100.300003 L 205.699997 100.300003 L 205.699997 52.400002 Z M 254.300003 68.199997 C 253.100006 68 251.699997 67.800003 249.699997 67.800003 C 243.399994 67.800003 239.699997 71.900002 239.699997 80.199997 L 239.699997 100.199997 L 230.399994 100.199997 L 230.399994 60.599998 L 239.5 60.599998 L 239.5 66.199997 L 239.699997 66.199997 C 241.5 62.800003 245.5 59.300003 250.800003 59.300003 C 252.300003 59.300003 253.300003 59.400002 254.300003 59.5 L 254.300003 68.199997 Z M 298.799988 100.199997 L 289.799988 100.199997 L 289.799988 95.199997 L 289.600006 95.199997 C 286.899994 98.599998 282.600006 101.699997 276 101.699997 C 267.100006 101.699997 257 94.599998 257 80.400002 C 257 67.800003 265.899994 59.400002 276.700012 59.400002 C 283.299988 59.400002 287.299988 62.900002 289.700012 66 L 289.899994 66 L 289.899994 60.599998 L 298.899994 60.599998 L 298.899994 100.199997 L 298.799988 100.199997 Z M 278.399994 93.5 C 284.5 93.5 290.200012 88.199997 290.200012 80.599998 C 290.200012 72.599998 285 67.300003 278.5 67.300003 C 270.299988 67.300003 266.399994 73.900002 266.399994 80.400002 C 266.399994 87 270.200012 93.5 278.399994 93.5 Z M 309.600006 60.599998 L 318.799988 60.599998 L 318.799988 65.599998 L 319 65.599998 C 322.100006 61.099998 326.700012 59.300003 331.100006 59.300003 C 339.299988 59.300003 346.5 64.699997 346.5 77.400002 L 346.5 100.199997 L 337.200012 100.199997 L 337.200012 77.900002 C 337.200012 71.099998 334 67.5 328.700012 67.5 C 322.899994 67.5 318.899994 71.599998 318.899994 79.300003 L 318.899994 100.300003 L 309.600006 100.300003 L 309.600006 60.599998 Z M 374.600006 70.800003 C 374.200012 67.900002 372 66 369.299988 66 C 366.100006 66 364.299988 68 364.299988 70.199997 C 364.299988 72.599998 365.5 74.300003 372.399994 76.599998 C 380.899994 79.300003 383.899994 83.699997 383.899994 89.300003 C 383.899994 96.599998 378.399994 101.699997 369.299988 101.699997 C 359.799988 101.699997 355.100006 96.5 354.399994 89.099998 L 363 89.099998 C 363.399994 92.400002 365.399994 94.900002 369.5 94.900002 C 373 94.900002 375 92.699997 375 90 C 375 87 373.299988 85.099998 366.700012 82.900002 C 359.299988 80.5 355.5 76.800003 355.5 70.599998 C 355.5 64.099998 360.600006 59.300003 369 59.300003 C 377.5 59.300003 382 64.300003 383 70.800003 L 374.600006 70.800003 Z M 392 42.400002 L 402.299988 42.400002 L 402.299988 51.800003 L 392 51.800003 L 392 42.400002 Z M 392.5 60.599998 L 401.799988 60.599998 L 401.799988 100.300003 L 392.5 100.300003 L 392.5 60.599998 Z M 430.5 70.800003 C 430.100006 67.900002 427.899994 66 425.200012 66 C 422 66 420.200012 68 420.200012 70.199997 C 420.200012 72.599998 421.399994 74.300003 428.299988 76.599998 C 436.799988 79.300003 439.799988 83.699997 439.799988 89.300003 C 439.799988 96.599998 434.299988 101.699997 425.200012 101.699997 C 415.700012 101.699997 411 96.5 410.299988 89.099998 L 418.899994 89.099998 C 419.299988 92.400002 421.299988 94.900002 425.399994 94.900002 C 428.899994 94.900002 430.899994 92.699997 430.899994 90 C 430.899994 87 429.200012 85.099998 422.600006 82.900002 C 415.200012 80.5 411.399994 76.800003 411.399994 70.599998 C 411.399994 64.099998 416.5 59.300003 424.899994 59.300003 C 433.399994 59.300003 437.899994 64.300003 438.899994 70.800003 L 430.5 70.800003 Z M 443.799988 60.599998 L 448.799988 60.599998 L 448.799988 47.900002 L 458.100006 47.900002 L 458.100006 60.599998 L 468 60.599998 L 468 68.400002 L 458 68.400002 L 458 86.099998 C 458 91.5 459.700012 93 463.5 93 C 465.100006 93 466.899994 92.699997 468.299988 92.300003 L 468.299988 99.800003 C 466.200012 100.400002 463.600006 100.699997 461.299988 100.699997 C 451.399994 100.699997 448.799988 94.699997 448.799988 86.599998 L 448.799988 68.400002 L 443.799988 68.400002 L 443.799988 60.599998 Z M 493.299988 59.300003 C 505.700012 59.300003 514.5 68.400002 514.5 80.400002 C 514.5 92.099998 505.600006 101.699997 493.299988 101.699997 C 481.200012 101.699997 472.100006 92.400002 472.100006 80.400002 C 472.100006 68.099998 481.299988 59.300003 493.299988 59.300003 Z M 493.299988 93.400002 C 500.299988 93.400002 505.100006 87.800003 505.100006 80.400002 C 505.100006 73.400002 500.600006 67.5 493.299988 67.5 C 486.200012 67.5 481.5 73 481.5 80.400002 C 481.5 88 486.899994 93.400002 493.299988 93.400002 Z M 541.900024 67.800003 C 535.599976 67.800003 531.900024 71.900002 531.900024 80.199997 L 531.900024 100.199997 L 522.599976 100.199997 L 522.599976 60.599998 L 531.700012 60.599998 L 531.700012 66.199997 L 531.900024 66.199997 C 533.700012 62.800003 537.700012 59.300003 543 59.300003 C 544.5 59.300003 545.5 59.400002 546.5 59.5 L 546.5 68.199997 C 545.299988 68 543.900024 67.800003 541.900024 67.800003 Z"/>
    <g id="Group">
        <path id="path1" fill="#FFFFFF" stroke="none" d="M 72 119.900002 C 69.400002 119.900002 67.199997 117.800003 67.199997 115.099998 L 67.199997 28.900002 C 67.199997 26.300003 69.300003 24.099998 72 24.099998 C 74.599998 24.099998 76.800003 26.199997 76.800003 28.900002 L 76.800003 115.099998 C 76.800003 117.699997 74.599998 119.900002 72 119.900002 Z M 52 76.800003 L 29 76.800003 C 26.4 76.800003 24.200001 74.699997 24.200001 72 C 24.200001 69.300003 26.299999 67.199997 29 67.199997 L 52 67.199997 C 54.599998 67.199997 56.799999 69.300003 56.799999 72 C 56.799999 74.699997 54.599998 76.800003 52 76.800003 Z M 115.099998 76.800003 L 92 76.800003 C 89.400002 76.800003 87.199997 74.699997 87.199997 72 C 87.199997 69.300003 89.300003 67.199997 92 67.199997 L 115 67.199997 C 117.599998 67.199997 119.800003 69.300003 119.800003 72 C 119.800003 74.699997 117.699997 76.800003 115.099998 76.800003 Z"/>
        <path id="path2" fill="#FFFFFF" stroke="none" d="M 72 144 C 32.299999 144 0 111.699997 0 72 C 0 32.300003 32.299999 0 72 0 C 111.699997 0 144 32.300003 144 72 C 144 111.699997 111.699997 144 72 144 Z M 72 9.600006 C 37.599998 9.600006 9.6 37.599998 9.6 72 C 9.6 106.400002 37.599998 134.399994 72 134.399994 C 106.400002 134.399994 134.399994 106.400002 134.399994 72 C 134.399994 37.599998 106.400002 9.600006 72 9.600006 Z"/>
    </g>
</svg>
